<svg width="20" height="20" viewBox="0 0 20 20" fill="none" xmlns="http://www.w3.org/2000/svg">
<path d="M8.40106 3.14057H3.11459C2.55377 3.14057 2.01591 3.36336 1.61935 3.75992C1.22279 4.15649 1 4.69434 1 5.25516V16.8854C1 17.4462 1.22279 17.9841 1.61935 18.3807C2.01591 18.7772 2.55377 19 3.11459 19H14.7448C15.3057 19 15.8435 18.7772 16.2401 18.3807C16.6366 17.9841 16.8594 17.4462 16.8594 16.8854V11.5989M15.3644 1.64556C15.5595 1.44359 15.7928 1.2825 16.0508 1.17168C16.3088 1.06085 16.5863 1.00252 16.867 1.00008C17.1478 0.99764 17.4263 1.05114 17.6861 1.15747C17.946 1.26379 18.1821 1.4208 18.3806 1.61935C18.5792 1.81789 18.7362 2.05399 18.8425 2.31387C18.9489 2.57374 19.0024 2.85219 18.9999 3.13296C18.9975 3.41374 18.9391 3.69122 18.8283 3.9492C18.7175 4.20719 18.5564 4.44053 18.3544 4.63559L9.27651 13.7135H6.28647V10.7235L15.3644 1.64556Z" stroke="#73628A" stroke-width="2" stroke-linecap="round" stroke-linejoin="round"/>
</svg>
