<svg width="18" height="18" viewBox="0 0 18 18" fill="none" xmlns="http://www.w3.org/2000/svg">
<path fill-rule="evenodd" clip-rule="evenodd" d="M7.71429 0C7.47558 0.000111542 7.24162 0.0583685 7.03861 0.168246C6.8356 0.278124 6.67156 0.435284 6.56486 0.622125L5.634 2.25H1.28571C0.944722 2.25 0.617695 2.36853 0.376577 2.57951C0.135459 2.79048 0 3.07663 0 3.375C0 3.67337 0.135459 3.95952 0.376577 4.17049C0.617695 4.38147 0.944722 4.5 1.28571 4.5V15.75C1.28571 16.3467 1.55663 16.919 2.03887 17.341C2.5211 17.7629 3.17516 18 3.85714 18H14.1429C14.8248 18 15.4789 17.7629 15.9611 17.341C16.4434 16.919 16.7143 16.3467 16.7143 15.75V4.5C17.0553 4.5 17.3823 4.38147 17.6234 4.17049C17.8645 3.95952 18 3.67337 18 3.375C18 3.07663 17.8645 2.79048 17.6234 2.57951C17.3823 2.36853 17.0553 2.25 16.7143 2.25H12.366L11.4351 0.622125C11.3284 0.435284 11.1644 0.278124 10.9614 0.168246C10.7584 0.0583685 10.5244 0.000111542 10.2857 0H7.71429ZM5.14286 6.75C5.14286 6.45163 5.27832 6.16548 5.51943 5.95451C5.76055 5.74353 6.08758 5.625 6.42857 5.625C6.76956 5.625 7.09659 5.74353 7.33771 5.95451C7.57883 6.16548 7.71429 6.45163 7.71429 6.75V13.5C7.71429 13.7984 7.57883 14.0845 7.33771 14.2955C7.09659 14.5065 6.76956 14.625 6.42857 14.625C6.08758 14.625 5.76055 14.5065 5.51943 14.2955C5.27832 14.0845 5.14286 13.7984 5.14286 13.5V6.75ZM11.5714 5.625C11.2304 5.625 10.9034 5.74353 10.6623 5.95451C10.4212 6.16548 10.2857 6.45163 10.2857 6.75V13.5C10.2857 13.7984 10.4212 14.0845 10.6623 14.2955C10.9034 14.5065 11.2304 14.625 11.5714 14.625C11.9124 14.625 12.2394 14.5065 12.4806 14.2955C12.7217 14.0845 12.8571 13.7984 12.8571 13.5V6.75C12.8571 6.45163 12.7217 6.16548 12.4806 5.95451C12.2394 5.74353 11.9124 5.625 11.5714 5.625Z" fill="#9E4141"/>
</svg>
